<svg width="18" height="20" viewBox="0 0 18 20" fill="none" xmlns="http://www.w3.org/2000/svg">
<g clip-path="url(#clip0)">
<path d="M9.00398 5.50781C6.44862 5.50781 4.38746 7.51172 4.38746 9.99609C4.38746 12.4805 6.44862 14.4844 9.00398 14.4844C11.5593 14.4844 13.6205 12.4805 13.6205 9.99609C13.6205 7.51172 11.5593 5.50781 9.00398 5.50781ZM9.00398 12.9141C7.35264 12.9141 6.00264 11.6055 6.00264 9.99609C6.00264 8.38672 7.34862 7.07812 9.00398 7.07812C10.6593 7.07812 12.0053 8.38672 12.0053 9.99609C12.0053 11.6055 10.6553 12.9141 9.00398 12.9141ZM14.8861 5.32422C14.8861 5.90625 14.404 6.37109 13.8093 6.37109C13.2107 6.37109 12.7326 5.90234 12.7326 5.32422C12.7326 4.74609 13.2147 4.27734 13.8093 4.27734C14.404 4.27734 14.8861 4.74609 14.8861 5.32422ZM17.9437 6.38672C17.8754 4.98438 17.5459 3.74219 16.4892 2.71875C15.4366 1.69531 14.1589 1.375 12.7165 1.30469C11.2299 1.22266 6.77407 1.22266 5.28746 1.30469C3.84907 1.37109 2.57139 1.69141 1.51469 2.71484C0.457997 3.73828 0.132551 4.98047 0.0602295 6.38281C-0.0241455 7.82812 -0.0241455 12.1602 0.0602295 13.6055C0.128533 15.0078 0.457997 16.25 1.51469 17.2734C2.57139 18.2969 3.84505 18.6172 5.28746 18.6875C6.77407 18.7695 11.2299 18.7695 12.7165 18.6875C14.1589 18.6211 15.4366 18.3008 16.4892 17.2734C17.5419 16.25 17.8714 15.0078 17.9437 13.6055C18.0281 12.1602 18.0281 7.83203 17.9437 6.38672ZM16.0232 15.1562C15.7098 15.9219 15.1031 16.5117 14.3116 16.8203C13.1263 17.2773 10.3138 17.1719 9.00398 17.1719C7.69416 17.1719 4.87764 17.2734 3.69639 16.8203C2.90889 16.5156 2.30219 15.9258 1.98478 15.1562C1.51469 14.0039 1.62318 11.2695 1.62318 9.99609C1.62318 8.72266 1.51871 5.98438 1.98478 4.83594C2.29818 4.07031 2.90487 3.48047 3.69639 3.17187C4.88166 2.71484 7.69416 2.82031 9.00398 2.82031C10.3138 2.82031 13.1303 2.71875 14.3116 3.17187C15.0991 3.47656 15.7058 4.06641 16.0232 4.83594C16.4933 5.98828 16.3848 8.72266 16.3848 9.99609C16.3848 11.2695 16.4933 14.0078 16.0232 15.1562Z" fill="#BEBAB1"/>
</g>
<defs>
<clipPath id="clip0">
<rect width="18" height="20" fill="white"/>
</clipPath>
</defs>
</svg>
