<svg width="20" height="16" viewBox="0 0 20 16" fill="none" xmlns="http://www.w3.org/2000/svg">
<path d="M17.9441 3.98749C17.9568 4.16248 17.9568 4.33751 17.9568 4.5125C17.9568 9.84997 13.8325 16 6.29441 16C3.97207 16 1.81473 15.3375 0 14.1875C0.329961 14.225 0.647187 14.2375 0.989844 14.2375C2.90605 14.2375 4.67004 13.6 6.07867 12.5125C4.27664 12.475 2.76648 11.3125 2.24617 9.7125C2.5 9.74997 2.75379 9.77498 3.02031 9.77498C3.38832 9.77498 3.75637 9.72496 4.09898 9.63751C2.22082 9.26248 0.812148 7.63749 0.812148 5.67499V5.62501C1.35781 5.92501 1.99238 6.11251 2.66492 6.13748C1.56086 5.41247 0.837539 4.17498 0.837539 2.77497C0.837539 2.02499 1.04055 1.33749 1.3959 0.737481C3.41367 3.18748 6.44668 4.78745 9.84766 4.96248C9.78422 4.66248 9.74613 4.35001 9.74613 4.03751C9.74613 1.81248 11.5736 0 13.8451 0C15.0253 0 16.0913 0.487499 16.84 1.275C17.7664 1.10001 18.6547 0.762491 19.4416 0.300002C19.137 1.23752 18.4898 2.02502 17.6395 2.52499C18.4644 2.43753 19.2639 2.21248 19.9999 1.90001C19.4416 2.69998 18.7436 3.41245 17.9441 3.98749Z" fill="#BEBAB1"/>
</svg>
